<?xml version="1.0" standalone="no"?><!DOCTYPE svg PUBLIC "-//W3C//DTD SVG 1.1//EN" "http://www.w3.org/Graphics/SVG/1.1/DTD/svg11.dtd"><svg t="1601025321915" class="icon" viewBox="0 0 1024 1024" version="1.1" xmlns="http://www.w3.org/2000/svg" p-id="6608" xmlns:xlink="http://www.w3.org/1999/xlink" width="200" height="200"><defs><style type="text/css"></style></defs><path d="M512 149.333333c200.298667 0 362.666667 162.368 362.666667 362.666667s-162.368 362.666667-362.666667 362.666667S149.333333 712.298667 149.333333 512 311.701333 149.333333 512 149.333333z m0 64c-164.949333 0-298.666667 133.717333-298.666667 298.666667s133.717333 298.666667 298.666667 298.666667 298.666667-133.717333 298.666667-298.666667-133.717333-298.666667-298.666667-298.666667z m-64 141.312a42.666667 42.666667 0 0 1 22.741333 6.570667l176.533334 111.232a42.666667 42.666667 0 0 1 0.32 71.978667l-176.533334 113.429333A42.666667 42.666667 0 0 1 405.333333 621.973333v-224.64a42.666667 42.666667 0 0 1 42.666667-42.666666z m21.333333 81.322667v146.922667l115.456-74.176L469.333333 435.968z" p-id="6609"></path></svg>